
<global>
amp_veltrack=0
ampeg_release=0.25
</global>

<group>
group_label=Group_0-42
lpc_hicc1=42
lpc_locc1=0

<region>
hikey=a#2
hivel=127
lokey=a2
loop_end=259636
loop_mode=loop_continuous
loop_start=75709
loop_xfade=48574
lovel=1
lpc=N/rfQeYHYsKRfS5CvC3uwb7ByUHx04vB200fQfnyGsFKcydBUG3VwGf2s0CjYNU/RpMDwcW04kB8jJ/ACEgZQDrxsD/Yg2LAKAAKQMDEBMDQ5iFAc2CJv0w5Vj5UXXs9
lpc_rms=-30.26
offset=9196
pitch_keycenter=a#2
sample=Tenor_accent_PP_A#2.opus
tune=-4
</region>

<region>
hikey=a#3
hivel=127
lokey=a3
loop_end=251554
loop_mode=loop_continuous
loop_start=73352
loop_xfade=47062
lovel=1
lpc=zohaQkb8/sJ/UulCreWZwrd3VkIV46zBovGpv2HXD8FC0bpBGYycwTR8iEElnpnA29Z8wQKWqkFTUpnBhwhMQba7yr+xmDDAFohkwOH1akAhV61AmAulwC3uK7/CWsA/
lpc_rms=-28.35
offset=2153
pitch_keycenter=a#3
sample=Tenor_accent_PP_A#3.opus
tune=-15
</region>

<region>
hikey=a#4
hivel=127
lokey=a4
loop_end=255161
loop_mode=loop_continuous
loop_start=74404
loop_xfade=47737
lovel=1
lpc=tc6UQppFOsPJQEdD7aofwznl+0LuQHjC7XK+QGNFgUCSkQTBKElNQX3bIEGoXoTBViaiwSjbIEIDmavBIt+KQUPUv8Fo9BpBsBESQMvvEEFx2S/B4C/eQDubpsE7GYZB
lpc_rms=-27.80
offset=1512
pitch_keycenter=a#4
sample=Tenor_accent_PP_A#4.opus
tune=-25
</region>

<region>
hikey=c3
hivel=127
lokey=b2
loop_end=295657
loop_mode=loop_continuous
loop_start=86212
loop_xfade=55314
lovel=1
lpc=tZQWQoJQm8KGuWxCZuUNwnERoUFr8OTAcYrjPz7OIr9qEjZAqx1kPmdJl0ATxEZAwsZtwbnkD0EcaoXA8axjQAfSrMAc+wBAH651Pq2IUkA2noHA1j1eQLVHsL6/ZZa/
lpc_rms=-30.77
offset=5573
pitch_keycenter=c3
sample=Tenor_accent_PP_C3.opus
tune=-16
</region>

<region>
hikey=c4
hivel=127
lokey=b3
loop_end=263543
loop_mode=loop_continuous
loop_start=76848
loop_xfade=49305
lovel=1
lpc=z/8KQwA+osNLMIlD6jQjw1rK40K/EE7CNxAjQSZ0hMErsiZC6ELywfsrEELdo9LBJaXYwfABA0JfUJHA9lFNQPuxWsHYWxS+/CKYQcDiT8CpK0bBypDYv/La/L+befRA
lpc_rms=-23.86
offset=6469
pitch_keycenter=c4
sample=Tenor_accent_PP_C4.opus
tune=-31
</region>

<region>
hikey=c5
hivel=127
lokey=b4
loop_end=244774
loop_mode=loop_continuous
loop_start=71375
loop_xfade=45794
lovel=1
lpc=Wb+NQqtUN8NAM1lD6wQvw41s+kIY1Y7CmvafQV3xj8CibaJBLckKwlw9D0JKOo7BhzItwe+Jw0GQjI7BbIawP+0ShEEAsMPBJ+TIQQc328EWlSVCIP0wwmxJyUHfwnjA
lpc_rms=-27.84
offset=1492
pitch_keycenter=c5
sample=Tenor_accent_PP_C5.opus
tune=-36
</region>

<region>
hikey=d3
hivel=127
lokey=c#3
loop_end=251206
loop_mode=loop_continuous
loop_start=73251
loop_xfade=46997
lovel=1
lpc=2QVPQspf68L7U9BCzBqSwpcMZkJe4ArCAhOWQTHnisE2PGlBZpIQwOujUkDv5Z5AKoq4wWx5j0GKVffAet3xQLlUDMF93Qc+cRpeQLwv7UAciyfBkhvmQAOzl8CA/64/
lpc_rms=-28.16
offset=4417
pitch_keycenter=d3
sample=Tenor_accent_PP_D3.opus
tune=-21
</region>

<region>
hikey=d4
hivel=127
lokey=c#4
loop_end=259570
loop_mode=loop_continuous
loop_start=75690
loop_xfade=48562
lovel=1
lpc=PGgEQ7ogqcMccp5DAhw4w47f6EJVl0zCukipQcb4O8I1XURCHukOwYC4w0GcNerB0wwQwst9DkK6KeA/iH3iQEKpW8HbyxrBtHXSQYUzB8HWnsrAmuZnQaI+4MFSl35B
lpc_rms=-25.55
offset=5558
pitch_keycenter=d4
sample=Tenor_accent_PP_D4.opus
tune=-11
</region>

<region>
hikey=d5
hivel=127
lokey=c#5
loop_end=247788
loop_mode=loop_continuous
loop_start=72254
loop_xfade=46358
lovel=1
lpc=LBu+Qr24W8PKslNDHhv2wjF2oEKznBXCsjnmwfK2JEL/GiTAdqOgwQUz3EH0Oq/BmcWfwJ9Ms0FtgHq/XZ2awd14ykF+JMXB7PtNQS2qIEH6A7TBePndQUkNr8HssjhB
lpc_rms=-27.06
offset=785
pitch_keycenter=d5
sample=Tenor_accent_PP_D5.opus
tune=-46
</region>

<region>
hikey=e3
hivel=127
lokey=d#3
loop_end=250119
loop_mode=loop_continuous
loop_start=72934
loop_xfade=46794
lovel=1
lpc=EOI3Quj2zcLQVqRC7jAywv838kH6a0LBD2quP8VF18A3KhdB3+MYwGnKGEGK+bbACj8twZQVlUDT/fpATA8NwdmcgkAbuujAakwXQZilH8DCJbO/84pFQJmTrr8SPzu/
lpc_rms=-31.58
offset=8132
pitch_keycenter=e3
sample=Tenor_accent_PP_E3.opus
tune=-6
</region>

<region>
hikey=e4
hivel=127
lokey=d#4
loop_end=253953
loop_mode=loop_continuous
loop_start=74052
loop_xfade=47511
lovel=1
lpc=99q0Qqd7WMOySFxDsQMqw+Ci90KPboXCntdCQROsecB/m5BB/5iOwY5x3EGE7+/AmVy3wRki/EG86b3BYDMDQf0D1EDriJTBVIZaQe5HVcFPBn5BqGuUwYgFj0Gf+aPA
lpc_rms=-26.16
offset=4006
pitch_keycenter=e4
sample=Tenor_accent_PP_E4.opus
tune=-4
</region>

<region>
hikey=F5
hivel=127
lokey=d#5
loop_end=264485
loop_mode=loop_continuous
loop_start=85829
loop_xfade=55068
lovel=1
lpc=BEIVQ1BKjMO54UZDvIucwtLdNUIUbsbBf8O1QNQVFEGmtoTAIW33v+WRu0HddtnBeOEYQXVYEsBHYrRBrHygwWObCkHFBD7AvXIhQZdrasDHWKjAjLuKQbL5r8E9P6dB
lpc_rms=-24.03
offset=510
pitch_keycenter=E5
sample=Tenor_accent_PP_E5.opus
tune=-47
</region>

<region>
hikey=f#3
hivel=127
lokey=f3
loop_end=250858
loop_mode=loop_continuous
loop_start=73149
loop_xfade=46932
lovel=1
lpc=0+yhQp+GOMMsdBpDW6u/wmYRhkIsdujBgw6NQcCP+sG/kAJC9OiOwZ5SpUGp6lI//cUVwpnVB0K3V8XB/d+vQVlxYMHVjPK/oubtQBbbaD4zUOy/0XjdQCFjr8D2ige/
lpc_rms=-26.41
offset=2340
pitch_keycenter=f#3
sample=Tenor_accent_PP_F#3.opus
tune=-5
</region>

<region>
hikey=f#4
hivel=127
lokey=f4
loop_end=274721
loop_mode=loop_continuous
loop_start=80108
loop_xfade=51396
lovel=1
lpc=cpwEQ5BXk8PJdHRDiwUTw3mJw0LmjCvCVDNgQRtGD8Lilm5C/W8jwgObX0KFUSPC2pfzwfYuNULOK5PBWBxUQdYJEsHbsPPBU5wzQmzoJb8/85TB60EwQfCa6MHtpbhB
lpc_rms=-25.64
offset=2563
pitch_keycenter=f#4
sample=Tenor_accent_PP_F#4.opus
tune=-15
</region>

<region>
hivel=127
key=g#2
loop_end=256923
loop_mode=loop_continuous
loop_start=86449
loop_xfade=55465
lovel=1
lpc=RLP3QS8SkMLSwoZCw+g5wpen9kHvLlDBd3aRQGg4EcE8xmFBa55OwXedMEHfEwi+UrstwTpOB0FHGd3AqTPoQIDjp8CZ85JAGhqawI6K/D/TFjNAOdNnwLUnkkDofUPA
lpc_rms=-29.06
offset=6945
sample=Tenor_accent_PP_G#2.opus
tune=-8
</region>

<region>
hikey=g#3
hivel=127
lokey=g3
loop_end=274231
loop_mode=loop_continuous
loop_start=79965
loop_xfade=51305
lovel=1
lpc=PUP9QUHVkMK1jntCa60jwsJN9EHr8W7B2+LLQMQL8sC31ppAp5RSP9bwuj/IYPw/n1BLwRneUEGjbdXA6+vAQDkR48CBhS1AnlZhPrQJN7+Na9E+8LHVPlDCsz9it62/
lpc_rms=-35.38
offset=2139
pitch_keycenter=g#3
sample=Tenor_accent_PP_G#3.opus
tune=-10
</region>

<region>
hikey=g#4
hivel=127
lokey=g4
loop_end=252928
loop_mode=loop_continuous
loop_start=73753
loop_xfade=47319
lovel=1
lpc=5g1vQksDDsPcERJD/1TVwtk8m0L98z/Cah6CQTiqjMAvorxAZ8vdwO4PCEGMzyBA2J1pwdNdR0GAX7PA0UFcQHEjTMAgH6q+IkKAwPjhMkCj5yRBRv1vwUMAOUG7SibA
lpc_rms=-30.61
offset=4683
pitch_keycenter=g#4
sample=Tenor_accent_PP_G#4.opus
tune=-20
</region>
</group>

<group>
group_label=Group_43-84
lpc_hicc1=84
lpc_locc1=43

<region>
hikey=a#2
hivel=127
lokey=a2
loop_end=261553
loop_mode=loop_continuous
loop_start=76268
loop_xfade=48933
lovel=1
lpc=fRfsQTy2lcL+26JCC9d2wu73K0Kyx+PBvSx3QRV7MMGzEVFBcQoyweoiQ0EYbBXByoyxv5qHHEGEoS3BM2D0QJmhn8BhAhRAN5P3vrfEa7+Y/vo/hGfMvwFMBEBpSrC/
lpc_rms=-24.36
offset=2122
pitch_keycenter=a#2
sample=Tenor_accent_MF_A#2.opus
tune=-13
</region>

<region>
hikey=a#3
hivel=127
lokey=a3
loop_end=265162
loop_mode=loop_continuous
loop_start=77320
loop_xfade=49608
lovel=1
lpc=Zp3wQcviqcLRHtFC5lGlwmMrQELJRYfBUv7evyM9l0BkPfC/IT2eP7qtw0Ax1/fAv0e9wGgDfkEBYkfBduyEQGiHvT4fDKzAeo4lQUS8MsHK2EFBYREYwRzaPUA6GZA9
lpc_rms=-24.78
offset=4508
pitch_keycenter=a#3
sample=Tenor_accent_MF_A#3.opus
tune=-20
</region>

<region>
hikey=a#4
hivel=127
lokey=a4
loop_end=290278
loop_mode=loop_continuous
loop_start=84644
loop_xfade=54307
lovel=1
lpc=oBHbQR3MhMKd44ZCWX4uwsCItEGpiRy+qA9fwUi0/0Bn1tQ/gQQpwQRSrUHXKIPB+7nhwNcRqEGYmYLBySIuQYKLBcERmpRAu3UhwCgxAkB5FuU/fjwBPxILAMFHTLZA
lpc_rms=-24.19
offset=4673
pitch_keycenter=a#4
sample=Tenor_accent_MF_A#4.opus
tune=-20
</region>

<region>
hikey=c3
hivel=127
lokey=b2
loop_end=305105
loop_mode=loop_continuous
loop_start=88968
loop_xfade=57081
lovel=1
lpc=rhcwQgu9yMIR07lCG3hywsA86kFbZOXAB6XJvjGlocDNjmhBSCcRwQZdb0FjgGXBVe6ZP3P0n8AOI1hB7gg2wWLc2z9sZZW/yQKeQF/K87/jFwg/jGDWPcK7nb+bzNw+
lpc_rms=-22.03
offset=6683
pitch_keycenter=c3
sample=Tenor_accent_MF_C3.opus
tune=-15
</region>

<region>
hikey=c4
hivel=127
lokey=b3
loop_end=258608
loop_mode=loop_continuous
loop_start=75409
loop_xfade=48382
lovel=1
lpc=bE+rQsXrZcMDV4BDQuo9w6y990I1HYbCS2akQVe6a8GIRB9Ca4lEwkBYekK3bW/C/QiVQUsoKUHePE7BCD2cQbpamMH3zki/FC9cQYjrlsCQYRzBP4xxQE2mlkCppeW/
lpc_rms=-15.10
offset=4800
pitch_keycenter=c4
sample=Tenor_accent_MF_C4.opus
tune=-29
</region>

<region>
hikey=c5
hivel=127
lokey=b4
loop_end=255010
loop_mode=loop_continuous
loop_start=74360
loop_xfade=47709
lovel=1
lpc=uBzfQSvGcsK9WnRCtbsYwgkPp0HO4qHAicM2wcZnSkEVehu/a9MowReDUkFw+LHAjRCbwJYgFUFwq7fAqLhbPvmfsT95zRrAdIbdQNXC+MDrLd9ADKefwMu6ckCsits+
lpc_rms=-22.51
offset=1291
pitch_keycenter=c5
sample=Tenor_accent_MF_C5.opus
tune=-33
</region>

<region>
hikey=d3
hivel=127
lokey=c#3
loop_end=276798
loop_mode=loop_continuous
loop_start=80713
loop_xfade=51785
lovel=1
lpc=YX3aQcg4jsIdaKRCZFOEwmWZG0J0yCzBQS6YwDpimkCthgs+UrGRPnIRrEAJKxjBRl5KQDxJ1j762kw/UDkTwNUrwj+jYnHALGkCQeDH48AV1rVAAtCSwPYs+T+Z1aW+
lpc_rms=-22.11
offset=4028
pitch_keycenter=d3
sample=Tenor_accent_MF_D3.opus
tune=-24
</region>

<region>
hikey=d4
hivel=127
lokey=c#4
loop_end=259822
loop_mode=loop_continuous
loop_start=75763
loop_xfade=48609
lovel=1
lpc=e74/Qu/XBsO2vh1D+P3swlQLmEKJ3yTCP1m3QVeR28HIWRNCwj8VwqriNUKIUjnCsmmRQYsKCEHroGbBO0piQZFKSsGHpbhAp17Sv1ZmHkAQKoLApizOQFtLcMAU8qA9
lpc_rms=-18.96
offset=5343
pitch_keycenter=d4
sample=Tenor_accent_MF_D4.opus
tune=-15
</region>

<region>
hikey=d5
hivel=127
lokey=c#5
loop_end=258359
loop_mode=loop_continuous
loop_start=75337
loop_xfade=48335
lovel=1
lpc=i5MfQnhdwcKuAcFCuXqHwjpUb0ISkEHCgNO9QQksS8D1lDPAhNvFQFf1fMFllspBCOXMwUrAo0HsoIjB90OCQSBlVMHWMVBBVQJwwT0ZREGvOq0/R9DmwNTnSMCHstFA
lpc_rms=-21.14
offset=4999
pitch_keycenter=d5
sample=Tenor_accent_MF_D5.opus
tune=-34
</region>

<region>
hikey=e3
hivel=127
lokey=d#3
loop_end=261882
loop_mode=loop_continuous
loop_start=76364
loop_xfade=48994
lovel=1
lpc=rmsMQpmLs8Kf8MFCYhqFwt5K8kHV992/QF3pwNNgacB3lIZBKdGUwezywUGmJcLBVE02QcRlk8D0QNZAU/TcwAJdrD7dkklAPBuov1igBL+lcXFA6fKPwNYhHUBVtQ+/
lpc_rms=-21.77
offset=6786
pitch_keycenter=e3
sample=Tenor_accent_MF_E3.opus
tune=-12
</region>

<region>
hikey=e4
hivel=127
lokey=d#4
loop_end=266553
loop_mode=loop_continuous
loop_start=77726
loop_xfade=49868
lovel=1
lpc=mTkRQpn1usIdttBCDFKdwldtUUJbJL3B2TwBwZvOYUGApC9ATRdnwV9pnEES8VvBVGlSwC8sZEE/J1fBl+rpQCa0RUCb8U3BwDc1QWsXhMDIWktABo22wGL3n0CyKZ+/
lpc_rms=-20.58
offset=4168
pitch_keycenter=e4
sample=Tenor_accent_MF_E4.opus
tune=-13
</region>

<region>
hikey=F5
hivel=127
lokey=d#5
loop_end=261838
loop_mode=loop_continuous
loop_start=76351
loop_xfade=48986
lovel=1
lpc=oMwwQrsEuMLH1YtCedrdwXbR2UEB/qrByfmMvXxV+kASQYTAixttQDxgAEDmtKzA8eM5QCBYzb9YsKFAijp9P/G/ycBUbJxALRJEwEy6b0AdL59A3wkvwM7SMMGOfjZB
lpc_rms=-21.16
offset=5264
pitch_keycenter=E5
sample=Tenor_accent_MF_E5.opus
tune=-38
</region>

<region>
hikey=f#3
hivel=127
lokey=f3
loop_end=265102
loop_mode=loop_continuous
loop_start=77303
loop_xfade=49597
lovel=1
lpc=zWshQgLB3MLB2QhDzyzmwvdXiEI+frjB/srGPad9PEAppgM/V6gHwBmM7kBVYovABpiuwE5oJEEuNGbBvleHQZlHT8E0phhA9vCzQOpnycCmj5FAlp4YwG8Wfz97vI++
lpc_rms=-21.24
offset=1816
pitch_keycenter=f#3
sample=Tenor_accent_MF_F#3.opus
tune=-10
</region>

<region>
hikey=f#4
hivel=127
lokey=f4
loop_end=274302
loop_mode=loop_continuous
loop_start=79985
loop_xfade=51318
lovel=1
lpc=l+4XQo4Ns8IVIaNCyrk3wkvVz0EvufPAi5o3wZbgl0C/9DhBCiUwwbEXbUGQY3LBBJQGwKxNaUEqMEbBt0yCQcmYo8FZc9tAmzOkQPUGNcBvTgpARNC6wLyzvD8Pjg5A
lpc_rms=-20.77
offset=5010
pitch_keycenter=f#4
sample=Tenor_accent_MF_F#4.opus
tune=-19
</region>

<region>
hivel=127
key=g#2
loop_end=254723
loop_mode=loop_continuous
loop_start=74276
loop_xfade=47655
lovel=1
lpc=qf+zQYbDZsK6fHtC8LMywrsj3UE/X4HBlCL9QMDP+MCHSF1BFmp9wfahakEgyhjBU/EQPysDy0BjNAPBEc8EQVbHA8EOg7pAokOHwCb4I0BGroK/6JcQQDqNT7+0jx+/
lpc_rms=-24.46
offset=5012
sample=Tenor_accent_MF_G#2.opus
tune=-15
</region>

<region>
hikey=g#3
hivel=127
lokey=g3
loop_end=265149
loop_mode=loop_continuous
loop_start=77316
loop_xfade=49606
lovel=1
lpc=i3WnQZd0X8LPY4JCnHFHwm0F8UE0nFDBoZ/JP6zYYr9zZrNAON+1wPOEvECGxLfA2PkSP9yqq0CbYs3A4ouJQOGDAcBEpva+XZrtP9aWJMBgRWdA/u5TwO682j8N9oq+
lpc_rms=-27.35
offset=3421
pitch_keycenter=g#3
sample=Tenor_accent_MF_G#3.opus
tune=-15
</region>

<region>
hikey=g#4
hivel=127
lokey=g4
loop_end=297285
loop_mode=loop_continuous
loop_start=86687
loop_xfade=55618
lovel=1
lpc=PmCoQSnTQsJP30VCBfYHwsGxwUHzB4DBH5f8P2ID1UDJyK/Af4BnvsdbtkB1RKTA6VjSP9numz7054A+81REPy5kGcBhaBK/6+SsPzvCo7+1ppJA03nOwNj5j0A5mki+
lpc_rms=-25.62
offset=13674
pitch_keycenter=g#4
sample=Tenor_accent_MF_G#4.opus
tune=-24
</region>
</group>

<group>
group_label=Group_85-127
lpc_hicc1=127
lpc_locc1=85

<region>
hikey=a#2
hivel=127
lokey=a2
loop_end=278510
loop_mode=loop_continuous
loop_start=81213
loop_xfade=52105
lovel=1
lpc=ylZwQYJdEsK7uBxCrOXnwcE4tUEg97DBRmuIQRnaR8HBK11BCXtOwfQMC0H2rLDAlA17QJxxpb6bDx6/bPT9v+NkHEBOoc+/PlSgP5ci9L9uHi5A1iM2wLO4SUD/iNS/
lpc_rms=-19.55
offset=7045
pitch_keycenter=a#2
sample=Tenor_accent_FF_A#2.opus
tune=-13
</region>

<region>
hikey=a#3
hivel=127
lokey=a3
loop_end=273165
loop_mode=loop_continuous
loop_start=79654
loop_xfade=51105
lovel=1
lpc=qtOmQe5rYcIPL4dCvvhUwu4O7EED4KbAs1guwfJiPEG55bLAS5M9QOijkD8tiG/A6pRkP3jOiT/e7a++hqnQP7PuWMD1CQO+b3ylQNcxCME6NCdBNIIKwZPVg0AjukK/
lpc_rms=-22.86
offset=925
pitch_keycenter=a#3
sample=Tenor_accent_FF_A#3.opus
tune=-16
</region>

<region>
hikey=a#4
hivel=127
lokey=a4
loop_end=271580
loop_mode=loop_continuous
loop_start=79192
loop_xfade=50809
lovel=1
lpc=NltTQeoWB8JBFCRCti0HwmmSsEEv4vPAq9m/wHqkJkGRKevAQSINP3m8z0AK8+7AZLqaP+mznkCidfPAvaMOQXUh/sCRE5lA2ZPiv0TmGUC2IoPAnGmYQDABXMCEdKY/
lpc_rms=-22.36
offset=5355
pitch_keycenter=a#4
sample=Tenor_accent_FF_A#4.opus
tune=-10
</region>

<region>
hikey=c3
hivel=127
lokey=b2
loop_end=303706
loop_mode=loop_continuous
loop_start=88560
loop_xfade=56819
lovel=1
lpc=oUwWQiSqv8ICwt1CPne2wglmg0Kus0LC5hv2QeTTosFhK5tB9O5pweaJmkF7Ma/B8HNOQQ98hMBxcgxByOhFwX6ORkBbpvS+h9/LQMys1MCkZ3o/duHmP1plgL/AnFw+
lpc_rms=-17.97
offset=4710
pitch_keycenter=c3
sample=Tenor_accent_FF_C3.opus
tune=-11
</region>

<region>
hikey=c4
hivel=127
lokey=b3
loop_end=259764
loop_mode=loop_continuous
loop_start=75746
loop_xfade=48598
lovel=1
lpc=/CSEQmbnLsM/2kpDLnMkwz+72EJ7oy/C96JmwTGq0kEjgA5A9+aqwWH9HUKC+inCYOUsQZJamUHkxpDBLGFLQaCaR8FegRq/RRC1QW8e9sH7zrdB7Ty6wdlOk0E52JjA
lpc_rms=-14.20
offset=4116
pitch_keycenter=c4
sample=Tenor_accent_FF_C4.opus
tune=-27
</region>

<region>
hikey=c5
hivel=127
lokey=b4
loop_end=266619
loop_mode=loop_continuous
loop_start=77745
loop_xfade=49881
lovel=1
lpc=0AREQdS/0sGXXfBB+2GwwcKwO0ELzQ/AgtwWwFFG1D5eRUxASs2ywH3FmkBTZ5G+vT5jwJFTU0BqvGs+vC9owKWwXEC3Ewe/vA4vwNR/u0DlaLXASGGIQKvJ3b+uXOA/
lpc_rms=-18.31
offset=1422
pitch_keycenter=c5
sample=Tenor_accent_FF_C5.opus
tune=-29
</region>

<region>
hikey=d3
hivel=127
lokey=c#3
loop_end=273171
loop_mode=loop_continuous
loop_start=79656
loop_xfade=51106
lovel=1
lpc=mP67QZQudsLBx5BC5ZR3wmcJOkJaq+XBrfg+QZGGocDAv5lAb40fwLh47kACuSPBE9ZSP+Yg/0CrMgvBS/XRQG8atsC1iQi/XonJQE+nSsCLsZe/JOf4P2MbpT6f6YS/
lpc_rms=-21.21
offset=5070
pitch_keycenter=d3
sample=Tenor_accent_FF_D3.opus
tune=-22
</region>

<region>
hikey=d4
hivel=127
lokey=c#4
loop_end=268889
loop_mode=loop_continuous
loop_start=78407
loop_xfade=50305
lovel=1
lpc=9GMMQkMOycKxff5CzOvWwtGmjEKQP9zBC8QMwZe0skGTOnbBhdw4QBU7jkG/LtzBMq/fQHbSgUH5DaHBsyyMQX3wX8Ff/RO+GqZ6QaHRosFSHpFBJ7A8wWuzp0DaXbW/
lpc_rms=-17.46
offset=5857
pitch_keycenter=d4
sample=Tenor_accent_FF_D4.opus
tune=-16
</region>

<region>
hikey=d5
hivel=127
lokey=c#5
loop_end=277735
loop_mode=loop_continuous
loop_start=80986
loop_xfade=51961
lovel=1
lpc=QgssQZDh18FHCPhB/yWowQWFFEFnPni+bKutwGov1UAZ9I/A/QL4P8fzI79UIjA/N+T2vsN5Rr69Abw+WkKoPp6O5L2IEH0/DcZxwBHiukCEAm7AhmFLP6M24T7eMt49
lpc_rms=-18.85
offset=4408
pitch_keycenter=d5
sample=Tenor_accent_FF_D5.opus
tune=-38
</region>

<region>
hikey=e3
hivel=127
lokey=d#3
loop_end=261673
loop_mode=loop_continuous
loop_start=76303
loop_xfade=48955
lovel=1
lpc=InLhQbETjcKO85pCCudowoIRBkLyvyDBhKiKwEbz7D/Lu8pAjNuLwEIAn0BcwsXAf9WJP8s8Aj+nTpRAy/bCwF9cND/ueYO/X7KwQGuEdMBFV0Y/BNXRviJwrT5eGWM+
lpc_rms=-19.93
offset=5059
pitch_keycenter=e3
sample=Tenor_accent_FF_E3.opus
tune=-8
</region>

<region>
hikey=e4
hivel=127
lokey=d#4
loop_end=254120
loop_mode=loop_continuous
loop_start=74100
loop_xfade=47542
lovel=1
lpc=NkOxQfcMbsK6+JdCtBOLwsVFXELtwwzC38H5QNiLEUFWgifB+oTIQN++/z9aVdHAEa/tPwXCt0CAlQPBh7r8QKmGh8ANgJ/A08EwQbVyScFZxnRB6ZSEwaWtNUGjtUXA
lpc_rms=-19.25
offset=4502
pitch_keycenter=e4
sample=Tenor_accent_FF_E4.opus
tune=-5
</region>

<region>
hikey=F5
hivel=127
lokey=d#5
loop_end=292095
loop_mode=loop_continuous
loop_start=85174
loop_xfade=54647
lovel=1
lpc=iF4HQUZaWME6k25Bk/kxwW2FGUHPSKLAwR5dQMRN9r8AJitAT+eQwAeBekCOrlu/1fCuv1ZBNUBA03/AM45cQIGEA7+qHrY+fWClP5iQTT/Ljuy+A7mfP7MM1z5vxpo/
lpc_rms=-15.42
offset=2031
pitch_keycenter=E5
sample=Tenor_accent_FF_E5.opus
tune=-23
</region>

<region>
hikey=f#3
hivel=127
lokey=f3
loop_end=275487
loop_mode=loop_continuous
loop_start=80331
loop_xfade=51540
lovel=1
lpc=VzilQZvEP8KA00lCDjQdwvmLtUGHggvBo/hYQDOj1MDtgh5BnSoBwezGBkHSg4LAq9IrwILynkCr86DAyFGUQG2Id8AljnK/g12FQGFpesAbvIFA/npTwOVfQEAAybq/
lpc_rms=-19.52
offset=5204
pitch_keycenter=f#3
sample=Tenor_accent_FF_F#3.opus
tune=-7
</region>

<region>
hikey=f#4
hivel=127
lokey=f4
loop_end=263205
loop_mode=loop_continuous
loop_start=76750
loop_xfade=49242
lovel=1
lpc=wgDGQcs3fcLH7I1CUFhNwlnSy0HamMC/SE9swWSiJEGRboRA4I0wwcSljEEQBYPBb8cAQBh7EUFaidzAqCJ6QLbfNcD8rLLAZaM7QYogC8EMl8dAZtyVwK8Qlb5Lq+4/
lpc_rms=-18.50
offset=1660
pitch_keycenter=f#4
sample=Tenor_accent_FF_F#4.opus
tune=-15
</region>

<region>
hivel=127
key=g#2
loop_end=270367
loop_mode=loop_continuous
loop_start=78838
loop_xfade=50582
lovel=1
lpc=ogwaQSP7tMHdycRBfHedwYzoakFadBrBC34rQKd//D4c7Q1ArcSUwJ8Jq0BiY5bATb8nQFxNgz+7FWnAW5dWQExyEsBEsbw/uUVuvjiqTb8NyDw/oMWgPm0MAL8Vego+
lpc_rms=-20.30
offset=5647
sample=Tenor_accent_FF_G#2.opus
tune=-7
</region>

<region>
hikey=g#3
hivel=127
lokey=g3
loop_end=279404
loop_mode=loop_continuous
loop_start=81473
loop_xfade=52273
lovel=1
lpc=klRTQdzzAMKI8gpCcwXFwX64QEGFVcO/OaFZwP8YyT2NdKtAlPqTwFgRAEBAnLW+QIIfwAoaiECAPeW/Lx18ve67Kz5QRNG/+0AsQCyUNcDNzS1AacT4v5c8YT9syU28
lpc_rms=-25.94
offset=4333
pitch_keycenter=g#3
sample=Tenor_accent_FF_G#3.opus
tune=-14
</region>

<region>
hikey=g#4
hivel=127
lokey=g4
loop_end=255862
loop_mode=loop_continuous
loop_start=74608
loop_xfade=47868
lovel=1
lpc=WGwcQVpesMHq4b5B7gqbwVtLcUFeQwfBEJFNv4Odn0B4IovAi9BDQFBnD8CmxQlA8wzsv6XABEBZ4su/y1ZgPwKU3r5NW4a/IGvPP/642r9YgxJAedUjwEALzT+ysZQ+
lpc_rms=-22.14
offset=5176
pitch_keycenter=g#4
sample=Tenor_accent_FF_G#4.opus
tune=-18
</region>
</group>